<?xml version="1.0" encoding="UTF-8" standalone="no"?>
<!DOCTYPE svg PUBLIC "-//W3C//DTD SVG 1.1//EN" "http://www.w3.org/Graphics/SVG/1.1/DTD/svg11.dtd">
<svg xmlns="http://www.w3.org/2000/svg" version="1.1" viewBox="0.00 0.00 1491.00 363.00">
<path fill="#171616" d="
  M 1455.38 44.01
  A 25.01 25.01 0.0 0 1 1430.37 69.02
  A 25.01 25.01 0.0 0 1 1405.36 44.01
  A 25.01 25.01 0.0 0 1 1430.37 19.00
  A 25.01 25.01 0.0 0 1 1455.38 44.01
  Z
  M 1430.4906 67.0397
  A 23.03 22.69 89.7 0 0 1453.0597 43.8912
  A 23.03 22.69 89.7 0 0 1430.2494 20.9803
  A 23.03 22.69 89.7 0 0 1407.6803 44.1288
  A 23.03 22.69 89.7 0 0 1430.4906 67.0397
  Z"
/>
<path fill="#171616" d="
  M 1424.92 46.18
  C 1424.71 48.80 1424.89 51.80 1424.82 54.72
  Q 1424.74 58.19 1428.61 58.03
  Q 1429.20 58.01 1429.20 58.60
  L 1429.20 59.40
  Q 1429.20 60.00 1428.60 60.00
  L 1416.50 60.00
  Q 1416.00 60.00 1416.00 59.50
  L 1415.99 58.49
  Q 1415.99 57.95 1416.53 58.01
  Q 1418.39 58.19 1419.46 56.62
  Q 1419.71 56.25 1419.72 55.79
  Q 1419.79 44.44 1419.73 33.09
  C 1419.72 31.14 1419.04 30.00 1417.01 29.92
  A 0.60 0.60 0.0 0 1 1416.44 29.39
  L 1416.39 28.92
  Q 1416.30 28.14 1417.09 28.11
  Q 1428.85 27.71 1432.84 28.15
  C 1442.48 29.21 1443.49 42.42 1433.36 44.02
  A 0.49 0.49 0.0 0 0 1433.04 44.78
  C 1435.43 48.24 1440.24 56.88 1444.08 58.21
  A 0.92 0.92 0.0 0 1 1443.78 60.00
  L 1438.81 60.00
  Q 1438.40 60.00 1438.16 59.67
  L 1427.88 45.36
  A 1.64 1.63 29.4 0 0 1424.92 46.18
  Z
  M 1424.86 29.95
  L 1424.82 41.97
  A 0.98 0.98 0.0 0 0 1425.80 42.96
  L 1427.67 42.96
  A 7.19 6.74 0.2 0 0 1434.88 36.25
  L 1434.88 35.75
  A 7.19 6.74 0.2 0 0 1427.71 28.98
  L 1425.84 28.98
  A 0.98 0.98 0.0 0 0 1424.86 29.95
  Z"
/>
<path fill="#9a2339" d="
  M 665.74 99.01
  C 725.21 99.18 786.45 112.79 800.03 180.73
  Q 807.09 216.03 798.66 251.47
  C 784.69 310.20 727.78 326.36 674.75 326.73
  Q 627.36 327.07 579.83 327.01
  A 0.28 0.27 0.0 0 1 579.55 326.74
  L 579.55 99.51
  Q 579.55 99.01 580.05 99.01
  Q 622.93 98.88 665.74 99.01
  Z
  M 680.37 269.36
  C 702.63 268.15 729.14 263.36 736.51 238.51
  Q 739.86 227.24 739.85 214.86
  C 739.82 182.29 727.83 163.15 694.49 158.23
  Q 673.37 155.12 646.70 156.22
  Q 646.25 156.24 646.25 156.69
  L 646.25 269.48
  Q 646.25 269.93 646.70 269.94
  Q 663.60 270.27 680.37 269.36
  Z"
/>
<path fill="#171616" d="
  M 1036.50 275.37
  C 1011.75 319.48 958.20 326.89 912.74 326.97
  Q 870.00 327.04 827.00 326.98
  Q 826.54 326.98 826.54 326.52
  L 826.54 99.51
  Q 826.54 99.05 827.01 99.04
  Q 894.01 98.75 922.74 99.05
  Q 934.54 99.17 951.00 101.27
  C 997.41 107.19 1035.95 129.32 1046.53 177.81
  C 1053.13 208.09 1052.06 247.65 1036.50 275.37
  Z
  M 961.06 163.92
  Q 948.30 158.43 933.74 157.20
  Q 913.78 155.51 893.66 156.12
  Q 893.25 156.13 893.25 156.53
  L 893.25 269.53
  Q 893.25 269.92 893.65 269.93
  Q 910.30 270.27 927.00 269.42
  C 950.48 268.23 977.64 262.94 984.23 236.00
  Q 987.52 222.55 986.67 208.28
  C 985.53 189.18 979.80 171.98 961.06 163.92
  Z"
/>
<path fill="#9a2339" d="
  M 245.19 240.31
  L 202.42 326.55
  Q 202.20 327.00 201.69 327.00
  L 138.51 327.00
  Q 138.09 327.00 137.90 326.62
  L 95.64 240.14
  A 0.21 0.21 0.0 0 0 95.25 240.23
  L 95.25 326.50
  Q 95.25 327.00 94.75 327.00
  L 29.03 327.00
  Q 28.55 327.00 28.55 326.53
  L 28.56 100.17
  A 0.66 0.65 0.0 0 1 29.22 99.52
  L 93.43 99.49
  Q 93.93 99.49 94.15 99.94
  L 170.01 254.43
  A 0.32 0.32 0.0 0 0 170.58 254.43
  L 246.86 99.77
  A 0.48 0.46 -76.7 0 1 247.28 99.50
  L 311.99 99.50
  Q 312.35 99.50 312.35 99.86
  L 312.35 326.58
  Q 312.35 327.00 311.92 327.00
  L 246.24 327.00
  Q 245.72 327.00 245.72 326.49
  L 245.72 240.43
  Q 245.72 239.24 245.19 240.31
  Z"
/>
<rect fill="#171616" x="1067.37" y="99.50" width="66.38" height="227.50" rx="0.37"/>
<path fill="#171616" d="
  M 1232.44 327.00
  L 1152.82 327.00
  A 0.31 0.31 0.0 0 1 1152.58 326.50
  L 1240.45 213.47
  A 0.31 0.31 0.0 0 0 1240.45 213.09
  L 1152.55 100.00
  A 0.31 0.31 0.0 0 1 1152.79 99.50
  L 1232.40 99.50
  A 0.31 0.31 0.0 0 1 1232.64 99.62
  L 1280.39 161.37
  A 0.31 0.31 0.0 0 0 1280.88 161.37
  L 1328.93 99.62
  A 0.31 0.31 0.0 0 1 1329.17 99.50
  L 1408.78 99.50
  A 0.31 0.31 0.0 0 1 1409.03 100.00
  L 1320.80 213.09
  A 0.31 0.31 0.0 0 0 1320.80 213.47
  L 1408.99 326.50
  A 0.31 0.31 0.0 0 1 1408.75 327.00
  L 1329.15 327.01
  A 0.31 0.31 0.0 0 1 1328.91 326.89
  L 1280.87 265.19
  A 0.31 0.31 0.0 0 0 1280.38 265.19
  L 1232.68 326.88
  A 0.31 0.31 0.0 0 1 1232.44 327.00
  Z"
/>
<path fill="#9a2339" d="
  M 410.25 157.34
  L 410.25 185.63
  A 0.34 0.34 0.0 0 0 410.59 185.97
  L 539.29 185.97
  A 0.34 0.34 0.0 0 1 539.63 186.31
  L 539.63 242.69
  A 0.34 0.34 0.0 0 1 539.29 243.03
  L 410.59 243.03
  A 0.34 0.34 0.0 0 0 410.25 243.37
  L 410.25 269.66
  A 0.34 0.34 0.0 0 0 410.59 270.00
  L 546.41 270.00
  A 0.34 0.34 0.0 0 1 546.75 270.34
  L 546.75 326.66
  A 0.34 0.34 0.0 0 1 546.41 327.00
  L 343.89 327.00
  A 0.34 0.34 0.0 0 1 343.55 326.66
  L 343.55 100.31
  A 0.34 0.34 0.0 0 1 343.89 99.97
  L 546.41 99.97
  A 0.34 0.34 0.0 0 1 546.75 100.31
  L 546.75 156.66
  A 0.34 0.34 0.0 0 1 546.41 157.00
  L 410.59 157.00
  A 0.34 0.34 0.0 0 0 410.25 157.34
  Z"
/>
</svg>
